<?xml version="1.0" encoding="UTF-8" standalone="no"?>
<!DOCTYPE svg PUBLIC "-//W3C//DTD SVG 1.1//EN"
 "http://www.w3.org/Graphics/SVG/1.1/DTD/svg11.dtd">
<!-- Generated by graphviz version 2.40.1 (20161225.0304)
 -->
<!-- Title: dependencies Pages: 1 -->
<svg width="737pt" height="284pt"
 viewBox="0.00 0.00 737.00 284.00" xmlns="http://www.w3.org/2000/svg" xmlns:xlink="http://www.w3.org/1999/xlink">
<g id="graph0" class="graph" transform="scale(1 1) rotate(0) translate(4 280)">
<title>dependencies</title>
<polygon fill="#ffffff" stroke="transparent" points="-4,4 -4,-280 733,-280 733,4 -4,4"/>
<text text-anchor="start" x="343.5091" y="-42.4" font-family="sans-serif" font-weight="bold" font-size="14.00" fill="#000000">Legend</text>
<polygon fill="#ffffb3" stroke="transparent" points="130.5,-10 130.5,-30 150.5,-30 150.5,-10 130.5,-10"/>
<text text-anchor="start" x="154.129" y="-15.4" font-family="sans-serif" font-size="14.00" fill="#000000"> &#160;Declarations</text>
<polygon fill="#8dd3c7" stroke="transparent" points="243.5,-10 243.5,-30 263.5,-30 263.5,-10 243.5,-10"/>
<text text-anchor="start" x="267.2251" y="-15.4" font-family="sans-serif" font-size="14.00" fill="#000000"> &#160;Module</text>
<polygon fill="#80b1d3" stroke="transparent" points="329.5,-10 329.5,-30 349.5,-30 349.5,-10 329.5,-10"/>
<text text-anchor="start" x="353.2812" y="-15.4" font-family="sans-serif" font-size="14.00" fill="#000000"> &#160;Bootstrap</text>
<polygon fill="#fdb462" stroke="transparent" points="426.5,-10 426.5,-30 446.5,-30 446.5,-10 426.5,-10"/>
<text text-anchor="start" x="450.1732" y="-15.4" font-family="sans-serif" font-size="14.00" fill="#000000"> &#160;Providers</text>
<polygon fill="#fb8072" stroke="transparent" points="522.5,-10 522.5,-30 542.5,-30 542.5,-10 522.5,-10"/>
<text text-anchor="start" x="546.2258" y="-15.4" font-family="sans-serif" font-size="14.00" fill="#000000"> &#160;Exports</text>
<g id="clust1" class="cluster">
<title>cluster_AppModule</title>
<polygon fill="none" stroke="#000000" stroke-dasharray="1,5" points="8,-70 8,-268 721,-268 721,-70 8,-70"/>
</g>
<g id="clust2" class="cluster">
<title>cluster_AppModule_declarations</title>
<polygon fill="none" stroke="#000000" points="591,-78 591,-130 713,-130 713,-78 591,-78"/>
</g>
<g id="clust4" class="cluster">
<title>cluster_AppModule_imports</title>
<polygon fill="none" stroke="#000000" points="16,-78 16,-130 583,-130 583,-78 16,-78"/>
</g>
<g id="clust6" class="cluster">
<title>cluster_AppModule_bootstrap</title>
<polygon fill="none" stroke="#000000" points="299,-208 299,-260 423,-260 423,-208 299,-208"/>
</g>
<!-- AppComponent -->
<g id="node1" class="node">
<title>AppComponent</title>
<polygon fill="#ffffb3" stroke="#000000" points="704.9399,-122 599.0601,-122 599.0601,-86 704.9399,-86 704.9399,-122"/>
<text text-anchor="middle" x="652" y="-99.8" font-family="Times,serif" font-size="14.00" fill="#000000">AppComponent</text>
</g>
<!-- AppModule -->
<g id="node2" class="node">
<title>AppModule</title>
<polygon fill="#8dd3c7" stroke="#000000" points="402.6571,-187 399.6571,-191 378.6571,-191 375.6571,-187 319.3429,-187 319.3429,-151 402.6571,-151 402.6571,-187"/>
<text text-anchor="middle" x="361" y="-164.8" font-family="Times,serif" font-size="14.00" fill="#000000">AppModule</text>
</g>
<!-- AppComponent&#45;&gt;AppModule -->
<g id="edge1" class="edge">
<title>AppComponent&#45;&gt;AppModule</title>
<path fill="none" stroke="#000000" d="M652,-122.2843C652,-143.3211 652,-175 652,-175 652,-175 412.6932,-175 412.6932,-175"/>
<polygon fill="#000000" stroke="#000000" points="412.6932,-171.5001 402.6932,-175 412.6932,-178.5001 412.6932,-171.5001"/>
</g>
<!-- AppComponent  -->
<g id="node7" class="node">
<title>AppComponent </title>
<polygon fill="#80b1d3" stroke="#000000" points="415.439,-252 306.561,-252 306.561,-216 415.439,-216 415.439,-252"/>
<text text-anchor="middle" x="361" y="-229.8" font-family="Times,serif" font-size="14.00" fill="#000000">AppComponent </text>
</g>
<!-- AppModule&#45;&gt;AppComponent  -->
<g id="edge6" class="edge">
<title>AppModule&#45;&gt;AppComponent </title>
<path fill="none" stroke="#000000" stroke-dasharray="1,5" d="M361,-187.1061C361,-187.1061 361,-205.991 361,-205.991"/>
<polygon fill="#000000" stroke="#000000" points="357.5001,-205.9909 361,-215.991 364.5001,-205.991 357.5001,-205.9909"/>
</g>
<!-- AppMaterialModule -->
<g id="node3" class="node">
<title>AppMaterialModule</title>
<polygon fill="#8dd3c7" stroke="#000000" points="574.5772,-122 571.5772,-126 550.5772,-126 547.5772,-122 443.4228,-122 443.4228,-86 574.5772,-86 574.5772,-122"/>
<text text-anchor="middle" x="509" y="-99.8" font-family="Times,serif" font-size="14.00" fill="#000000">AppMaterialModule</text>
</g>
<!-- AppMaterialModule&#45;&gt;AppModule -->
<g id="edge2" class="edge">
<title>AppMaterialModule&#45;&gt;AppModule</title>
<path fill="none" stroke="#000000" d="M509,-122.0225C509,-139.3734 509,-163 509,-163 509,-163 413.015,-163 413.015,-163"/>
<polygon fill="#000000" stroke="#000000" points="413.015,-159.5001 403.015,-163 413.0149,-166.5001 413.015,-159.5001"/>
</g>
<!-- AppRoutingModule -->
<g id="node4" class="node">
<title>AppRoutingModule</title>
<polygon fill="#8dd3c7" stroke="#000000" points="425.2744,-122 422.2744,-126 401.2744,-126 398.2744,-122 296.7256,-122 296.7256,-86 425.2744,-86 425.2744,-122"/>
<text text-anchor="middle" x="361" y="-99.8" font-family="Times,serif" font-size="14.00" fill="#000000">AppRoutingModule</text>
</g>
<!-- AppRoutingModule&#45;&gt;AppModule -->
<g id="edge3" class="edge">
<title>AppRoutingModule&#45;&gt;AppModule</title>
<path fill="none" stroke="#000000" d="M361,-122.1061C361,-122.1061 361,-140.991 361,-140.991"/>
<polygon fill="#000000" stroke="#000000" points="357.5001,-140.9909 361,-150.991 364.5001,-140.991 357.5001,-140.9909"/>
</g>
<!-- AuthenticationModule -->
<g id="node5" class="node">
<title>AuthenticationModule</title>
<polygon fill="#8dd3c7" stroke="#000000" points="278.2534,-122 275.2534,-126 254.2534,-126 251.2534,-122 135.7466,-122 135.7466,-86 278.2534,-86 278.2534,-122"/>
<text text-anchor="middle" x="207" y="-99.8" font-family="Times,serif" font-size="14.00" fill="#000000">AuthenticationModule</text>
</g>
<!-- AuthenticationModule&#45;&gt;AppModule -->
<g id="edge4" class="edge">
<title>AuthenticationModule&#45;&gt;AppModule</title>
<path fill="none" stroke="#000000" d="M207,-122.0225C207,-139.3734 207,-163 207,-163 207,-163 309.3254,-163 309.3254,-163"/>
<polygon fill="#000000" stroke="#000000" points="309.3254,-166.5001 319.3254,-163 309.3253,-159.5001 309.3254,-166.5001"/>
</g>
<!-- CloudModule -->
<g id="node6" class="node">
<title>CloudModule</title>
<polygon fill="#8dd3c7" stroke="#000000" points="117.7773,-122 114.7773,-126 93.7773,-126 90.7773,-122 24.2227,-122 24.2227,-86 117.7773,-86 117.7773,-122"/>
<text text-anchor="middle" x="71" y="-99.8" font-family="Times,serif" font-size="14.00" fill="#000000">CloudModule</text>
</g>
<!-- CloudModule&#45;&gt;AppModule -->
<g id="edge5" class="edge">
<title>CloudModule&#45;&gt;AppModule</title>
<path fill="none" stroke="#000000" d="M71,-122.2843C71,-143.3211 71,-175 71,-175 71,-175 309.1412,-175 309.1412,-175"/>
<polygon fill="#000000" stroke="#000000" points="309.1413,-178.5001 319.1412,-175 309.1412,-171.5001 309.1413,-178.5001"/>
</g>
</g>
</svg>
