<?xml version="1.0" encoding="UTF-8" standalone="no"?>
<!DOCTYPE svg PUBLIC "-//W3C//DTD SVG 1.1//EN"
 "http://www.w3.org/Graphics/SVG/1.1/DTD/svg11.dtd">
<!-- Generated by graphviz version 2.40.1 (20161225.0304)
 -->
<!-- Title: dependencies Pages: 1 -->
<svg width="804pt" height="352pt"
 viewBox="0.00 0.00 804.00 352.00" xmlns="http://www.w3.org/2000/svg" xmlns:xlink="http://www.w3.org/1999/xlink">
<g id="graph0" class="graph" transform="scale(1 1) rotate(0) translate(4 348)">
<title>dependencies</title>
<polygon fill="#ffffff" stroke="transparent" points="-4,4 -4,-348 800,-348 800,4 -4,4"/>
<text text-anchor="start" x="377.0091" y="-42.4" font-family="sans-serif" font-weight="bold" font-size="14.00" fill="#000000">Legend</text>
<polygon fill="#ffffb3" stroke="transparent" points="164,-10 164,-30 184,-30 184,-10 164,-10"/>
<text text-anchor="start" x="187.629" y="-15.4" font-family="sans-serif" font-size="14.00" fill="#000000"> &#160;Declarations</text>
<polygon fill="#8dd3c7" stroke="transparent" points="277,-10 277,-30 297,-30 297,-10 277,-10"/>
<text text-anchor="start" x="300.7251" y="-15.4" font-family="sans-serif" font-size="14.00" fill="#000000"> &#160;Module</text>
<polygon fill="#80b1d3" stroke="transparent" points="363,-10 363,-30 383,-30 383,-10 363,-10"/>
<text text-anchor="start" x="386.7812" y="-15.4" font-family="sans-serif" font-size="14.00" fill="#000000"> &#160;Bootstrap</text>
<polygon fill="#fdb462" stroke="transparent" points="460,-10 460,-30 480,-30 480,-10 460,-10"/>
<text text-anchor="start" x="483.6732" y="-15.4" font-family="sans-serif" font-size="14.00" fill="#000000"> &#160;Providers</text>
<polygon fill="#fb8072" stroke="transparent" points="556,-10 556,-30 576,-30 576,-10 556,-10"/>
<text text-anchor="start" x="579.7258" y="-15.4" font-family="sans-serif" font-size="14.00" fill="#000000"> &#160;Exports</text>
<g id="clust7" class="cluster">
<title>cluster_AppModule</title>
<polygon fill="none" stroke="#000000" stroke-dasharray="1,5" points="8,-70 8,-336 456,-336 456,-70 8,-70"/>
</g>
<g id="clust8" class="cluster">
<title>cluster_AppModule_declarations</title>
<polygon fill="none" stroke="#000000" points="326,-146 326,-198 448,-198 448,-146 326,-146"/>
</g>
<g id="clust10" class="cluster">
<title>cluster_AppModule_imports</title>
<polygon fill="none" stroke="#000000" points="24,-78 24,-198 318,-198 318,-78 24,-78"/>
</g>
<g id="clust12" class="cluster">
<title>cluster_AppModule_bootstrap</title>
<polygon fill="none" stroke="#000000" points="65,-276 65,-328 189,-328 189,-276 65,-276"/>
</g>
<g id="clust26" class="cluster">
<title>cluster_CloudModule</title>
<polygon fill="none" stroke="#000000" stroke-dasharray="1,5" points="464,-70 464,-138 788,-138 788,-70 464,-70"/>
</g>
<g id="clust27" class="cluster">
<title>cluster_CloudModule_declarations</title>
<polygon fill="none" stroke="#000000" points="472,-78 472,-130 780,-130 780,-78 472,-78"/>
</g>
<!-- AppComponent -->
<g id="node1" class="node">
<title>AppComponent</title>
<polygon fill="#ffffb3" stroke="#000000" points="439.9399,-190 334.0601,-190 334.0601,-154 439.9399,-154 439.9399,-190"/>
<text text-anchor="middle" x="387" y="-167.8" font-family="Times,serif" font-size="14.00" fill="#000000">AppComponent</text>
</g>
<!-- AppModule -->
<g id="node2" class="node">
<title>AppModule</title>
<polygon fill="#8dd3c7" stroke="#000000" points="168.6571,-255 165.6571,-259 144.6571,-259 141.6571,-255 85.3429,-255 85.3429,-219 168.6571,-219 168.6571,-255"/>
<text text-anchor="middle" x="127" y="-232.8" font-family="Times,serif" font-size="14.00" fill="#000000">AppModule</text>
</g>
<!-- AppComponent&#45;&gt;AppModule -->
<g id="edge1" class="edge">
<title>AppComponent&#45;&gt;AppModule</title>
<path fill="none" stroke="#000000" d="M387,-190.2921C387,-212.2057 387,-246 387,-246 387,-246 178.7735,-246 178.7735,-246"/>
<polygon fill="#000000" stroke="#000000" points="178.7735,-242.5001 168.7735,-246 178.7735,-249.5001 178.7735,-242.5001"/>
</g>
<!-- AppComponent  -->
<g id="node7" class="node">
<title>AppComponent </title>
<polygon fill="#80b1d3" stroke="#000000" points="181.439,-320 72.561,-320 72.561,-284 181.439,-284 181.439,-320"/>
<text text-anchor="middle" x="127" y="-297.8" font-family="Times,serif" font-size="14.00" fill="#000000">AppComponent </text>
</g>
<!-- AppModule&#45;&gt;AppComponent  -->
<g id="edge6" class="edge">
<title>AppModule&#45;&gt;AppComponent </title>
<path fill="none" stroke="#000000" stroke-dasharray="1,5" d="M127,-255.1061C127,-255.1061 127,-273.991 127,-273.991"/>
<polygon fill="#000000" stroke="#000000" points="123.5001,-273.9909 127,-283.991 130.5001,-273.991 123.5001,-273.9909"/>
</g>
<!-- AppMaterialModule -->
<g id="node3" class="node">
<title>AppMaterialModule</title>
<polygon fill="#8dd3c7" stroke="#000000" points="309.5772,-122 306.5772,-126 285.5772,-126 282.5772,-122 178.4228,-122 178.4228,-86 309.5772,-86 309.5772,-122"/>
<text text-anchor="middle" x="244" y="-99.8" font-family="Times,serif" font-size="14.00" fill="#000000">AppMaterialModule</text>
</g>
<!-- AppMaterialModule&#45;&gt;AppModule -->
<g id="edge2" class="edge">
<title>AppMaterialModule&#45;&gt;AppModule</title>
<path fill="none" stroke="#000000" d="M207.2441,-122.0307C207.2441,-156.4218 207.2441,-228 207.2441,-228 207.2441,-228 179.0021,-228 179.0021,-228"/>
<polygon fill="#000000" stroke="#000000" points="179.0022,-224.5001 169.0021,-228 179.0021,-231.5001 179.0022,-224.5001"/>
</g>
<!-- AuthenticationModule -->
<g id="node5" class="node">
<title>AuthenticationModule</title>
<polygon fill="#8dd3c7" stroke="#000000" points="198.2534,-190 195.2534,-194 174.2534,-194 171.2534,-190 55.7466,-190 55.7466,-154 198.2534,-154 198.2534,-190"/>
<text text-anchor="middle" x="127" y="-167.8" font-family="Times,serif" font-size="14.00" fill="#000000">AuthenticationModule</text>
</g>
<!-- AppMaterialModule&#45;&gt;AuthenticationModule -->
<g id="edge7" class="edge">
<title>AppMaterialModule&#45;&gt;AuthenticationModule</title>
<path fill="none" stroke="#000000" d="M188.419,-122.2228C188.419,-122.2228 188.419,-143.7269 188.419,-143.7269"/>
<polygon fill="#000000" stroke="#000000" points="184.9191,-143.7269 188.419,-153.7269 191.9191,-143.727 184.9191,-143.7269"/>
</g>
<!-- CloudModule -->
<g id="node6" class="node">
<title>CloudModule</title>
<polygon fill="#8dd3c7" stroke="#000000" points="309.7773,-190 306.7773,-194 285.7773,-194 282.7773,-190 216.2227,-190 216.2227,-154 309.7773,-154 309.7773,-190"/>
<text text-anchor="middle" x="263" y="-167.8" font-family="Times,serif" font-size="14.00" fill="#000000">CloudModule</text>
</g>
<!-- AppMaterialModule&#45;&gt;CloudModule -->
<g id="edge10" class="edge">
<title>AppMaterialModule&#45;&gt;CloudModule</title>
<path fill="none" stroke="#000000" d="M247.2539,-122.2228C247.2539,-122.2228 247.2539,-143.7269 247.2539,-143.7269"/>
<polygon fill="#000000" stroke="#000000" points="243.754,-143.7269 247.2539,-153.7269 250.754,-143.727 243.754,-143.7269"/>
</g>
<!-- AppRoutingModule -->
<g id="node4" class="node">
<title>AppRoutingModule</title>
<polygon fill="#8dd3c7" stroke="#000000" points="160.2744,-122 157.2744,-126 136.2744,-126 133.2744,-122 31.7256,-122 31.7256,-86 160.2744,-86 160.2744,-122"/>
<text text-anchor="middle" x="96" y="-99.8" font-family="Times,serif" font-size="14.00" fill="#000000">AppRoutingModule</text>
</g>
<!-- AppRoutingModule&#45;&gt;AppModule -->
<g id="edge3" class="edge">
<title>AppRoutingModule&#45;&gt;AppModule</title>
<path fill="none" stroke="#000000" d="M43.6182,-122.2142C43.6182,-158.6396 43.6182,-237 43.6182,-237 43.6182,-237 75.3091,-237 75.3091,-237"/>
<polygon fill="#000000" stroke="#000000" points="75.3091,-240.5001 85.3091,-237 75.309,-233.5001 75.3091,-240.5001"/>
</g>
<!-- AuthenticationModule&#45;&gt;AppModule -->
<g id="edge4" class="edge">
<title>AuthenticationModule&#45;&gt;AppModule</title>
<path fill="none" stroke="#000000" d="M127,-190.1061C127,-190.1061 127,-208.991 127,-208.991"/>
<polygon fill="#000000" stroke="#000000" points="123.5001,-208.9909 127,-218.991 130.5001,-208.991 123.5001,-208.9909"/>
</g>
<!-- CloudModule&#45;&gt;AppModule -->
<g id="edge5" class="edge">
<title>CloudModule&#45;&gt;AppModule</title>
<path fill="none" stroke="#000000" d="M263,-190.1061C263,-209.3391 263,-237 263,-237 263,-237 178.9142,-237 178.9142,-237"/>
<polygon fill="#000000" stroke="#000000" points="178.9142,-233.5001 168.9142,-237 178.9142,-240.5001 178.9142,-233.5001"/>
</g>
<!-- AddCloudDialog -->
<g id="node8" class="node">
<title>AddCloudDialog</title>
<polygon fill="#ffffb3" stroke="#000000" points="772.437,-122 659.563,-122 659.563,-86 772.437,-86 772.437,-122"/>
<text text-anchor="middle" x="716" y="-99.8" font-family="Times,serif" font-size="14.00" fill="#000000">AddCloudDialog</text>
</g>
<!-- AddCloudDialog&#45;&gt;CloudModule -->
<g id="edge8" class="edge">
<title>AddCloudDialog&#45;&gt;CloudModule</title>
<path fill="none" stroke="#000000" d="M716,-122.1944C716,-130.2782 716,-138 716,-138 716,-138 278.3962,-138 278.3962,-138 278.3962,-138 278.3962,-143.8056 278.3962,-143.8056"/>
<polygon fill="#000000" stroke="#000000" points="274.8963,-143.8055 278.3962,-153.8056 281.8963,-143.8056 274.8963,-143.8055"/>
</g>
<!-- CloudLandingComponent -->
<g id="node9" class="node">
<title>CloudLandingComponent</title>
<polygon fill="#ffffb3" stroke="#000000" points="642.2175,-122 479.7825,-122 479.7825,-86 642.2175,-86 642.2175,-122"/>
<text text-anchor="middle" x="561" y="-99.8" font-family="Times,serif" font-size="14.00" fill="#000000">CloudLandingComponent</text>
</g>
<!-- CloudLandingComponent&#45;&gt;CloudModule -->
<g id="edge9" class="edge">
<title>CloudLandingComponent&#45;&gt;CloudModule</title>
<path fill="none" stroke="#000000" d="M479.7807,-104C410.5188,-104 322.0845,-104 322.0845,-104 322.0845,-104 322.0845,-172 322.0845,-172 322.0845,-172 319.8422,-172 319.8422,-172"/>
<polygon fill="#000000" stroke="#000000" points="319.8422,-168.5001 309.8422,-172 319.8421,-175.5001 319.8422,-168.5001"/>
</g>
</g>
</svg>
