<?xml version="1.0" encoding="UTF-8" standalone="no"?>
<!DOCTYPE svg PUBLIC "-//W3C//DTD SVG 1.1//EN"
 "http://www.w3.org/Graphics/SVG/1.1/DTD/svg11.dtd">
<!-- Generated by graphviz version 2.40.1 (20161225.0304)
 -->
<!-- Title: dependencies Pages: 1 -->
<svg width="1106pt" height="352pt"
 viewBox="0.00 0.00 1106.00 352.00" xmlns="http://www.w3.org/2000/svg" xmlns:xlink="http://www.w3.org/1999/xlink">
<g id="graph0" class="graph" transform="scale(1 1) rotate(0) translate(4 348)">
<title>dependencies</title>
<polygon fill="#ffffff" stroke="transparent" points="-4,4 -4,-348 1102,-348 1102,4 -4,4"/>
<text text-anchor="start" x="528.0091" y="-42.4" font-family="sans-serif" font-weight="bold" font-size="14.00" fill="#000000">Legend</text>
<polygon fill="#ffffb3" stroke="transparent" points="315,-10 315,-30 335,-30 335,-10 315,-10"/>
<text text-anchor="start" x="338.629" y="-15.4" font-family="sans-serif" font-size="14.00" fill="#000000"> &#160;Declarations</text>
<polygon fill="#8dd3c7" stroke="transparent" points="428,-10 428,-30 448,-30 448,-10 428,-10"/>
<text text-anchor="start" x="451.7251" y="-15.4" font-family="sans-serif" font-size="14.00" fill="#000000"> &#160;Module</text>
<polygon fill="#80b1d3" stroke="transparent" points="514,-10 514,-30 534,-30 534,-10 514,-10"/>
<text text-anchor="start" x="537.7812" y="-15.4" font-family="sans-serif" font-size="14.00" fill="#000000"> &#160;Bootstrap</text>
<polygon fill="#fdb462" stroke="transparent" points="611,-10 611,-30 631,-30 631,-10 611,-10"/>
<text text-anchor="start" x="634.6732" y="-15.4" font-family="sans-serif" font-size="14.00" fill="#000000"> &#160;Providers</text>
<polygon fill="#fb8072" stroke="transparent" points="707,-10 707,-30 727,-30 727,-10 707,-10"/>
<text text-anchor="start" x="730.7258" y="-15.4" font-family="sans-serif" font-size="14.00" fill="#000000"> &#160;Exports</text>
<g id="clust7" class="cluster">
<title>cluster_AppModule</title>
<polygon fill="none" stroke="#000000" stroke-dasharray="1,5" points="8,-70 8,-336 456,-336 456,-70 8,-70"/>
</g>
<g id="clust8" class="cluster">
<title>cluster_AppModule_declarations</title>
<polygon fill="none" stroke="#000000" points="326,-146 326,-198 448,-198 448,-146 326,-146"/>
</g>
<g id="clust10" class="cluster">
<title>cluster_AppModule_imports</title>
<polygon fill="none" stroke="#000000" points="24,-78 24,-198 318,-198 318,-78 24,-78"/>
</g>
<g id="clust12" class="cluster">
<title>cluster_AppModule_bootstrap</title>
<polygon fill="none" stroke="#000000" points="65,-276 65,-328 189,-328 189,-276 65,-276"/>
</g>
<g id="clust26" class="cluster">
<title>cluster_CloudModule</title>
<polygon fill="none" stroke="#000000" stroke-dasharray="1,5" points="464,-70 464,-138 1090,-138 1090,-70 464,-70"/>
</g>
<g id="clust27" class="cluster">
<title>cluster_CloudModule_declarations</title>
<polygon fill="none" stroke="#000000" points="708,-78 708,-130 1082,-130 1082,-78 708,-78"/>
</g>
<g id="clust33" class="cluster">
<title>cluster_CloudModule_providers</title>
<polygon fill="none" stroke="#000000" points="472,-78 472,-130 700,-130 700,-78 472,-78"/>
</g>
<!-- AppComponent -->
<g id="node1" class="node">
<title>AppComponent</title>
<polygon fill="#ffffb3" stroke="#000000" points="439.9399,-190 334.0601,-190 334.0601,-154 439.9399,-154 439.9399,-190"/>
<text text-anchor="middle" x="387" y="-167.8" font-family="Times,serif" font-size="14.00" fill="#000000">AppComponent</text>
</g>
<!-- AppModule -->
<g id="node2" class="node">
<title>AppModule</title>
<polygon fill="#8dd3c7" stroke="#000000" points="168.6571,-255 165.6571,-259 144.6571,-259 141.6571,-255 85.3429,-255 85.3429,-219 168.6571,-219 168.6571,-255"/>
<text text-anchor="middle" x="127" y="-232.8" font-family="Times,serif" font-size="14.00" fill="#000000">AppModule</text>
</g>
<!-- AppComponent&#45;&gt;AppModule -->
<g id="edge1" class="edge">
<title>AppComponent&#45;&gt;AppModule</title>
<path fill="none" stroke="#000000" d="M387,-190.2921C387,-212.2057 387,-246 387,-246 387,-246 178.7735,-246 178.7735,-246"/>
<polygon fill="#000000" stroke="#000000" points="178.7735,-242.5001 168.7735,-246 178.7735,-249.5001 178.7735,-242.5001"/>
</g>
<!-- AppComponent  -->
<g id="node7" class="node">
<title>AppComponent </title>
<polygon fill="#80b1d3" stroke="#000000" points="181.439,-320 72.561,-320 72.561,-284 181.439,-284 181.439,-320"/>
<text text-anchor="middle" x="127" y="-297.8" font-family="Times,serif" font-size="14.00" fill="#000000">AppComponent </text>
</g>
<!-- AppModule&#45;&gt;AppComponent  -->
<g id="edge6" class="edge">
<title>AppModule&#45;&gt;AppComponent </title>
<path fill="none" stroke="#000000" stroke-dasharray="1,5" d="M127,-255.1061C127,-255.1061 127,-273.991 127,-273.991"/>
<polygon fill="#000000" stroke="#000000" points="123.5001,-273.9909 127,-283.991 130.5001,-273.991 123.5001,-273.9909"/>
</g>
<!-- AppMaterialModule -->
<g id="node3" class="node">
<title>AppMaterialModule</title>
<polygon fill="#8dd3c7" stroke="#000000" points="309.5772,-122 306.5772,-126 285.5772,-126 282.5772,-122 178.4228,-122 178.4228,-86 309.5772,-86 309.5772,-122"/>
<text text-anchor="middle" x="244" y="-99.8" font-family="Times,serif" font-size="14.00" fill="#000000">AppMaterialModule</text>
</g>
<!-- AppMaterialModule&#45;&gt;AppModule -->
<g id="edge2" class="edge">
<title>AppMaterialModule&#45;&gt;AppModule</title>
<path fill="none" stroke="#000000" d="M207.2441,-122.0307C207.2441,-156.4218 207.2441,-228 207.2441,-228 207.2441,-228 179.0021,-228 179.0021,-228"/>
<polygon fill="#000000" stroke="#000000" points="179.0022,-224.5001 169.0021,-228 179.0021,-231.5001 179.0022,-224.5001"/>
</g>
<!-- AuthenticationModule -->
<g id="node5" class="node">
<title>AuthenticationModule</title>
<polygon fill="#8dd3c7" stroke="#000000" points="198.2534,-190 195.2534,-194 174.2534,-194 171.2534,-190 55.7466,-190 55.7466,-154 198.2534,-154 198.2534,-190"/>
<text text-anchor="middle" x="127" y="-167.8" font-family="Times,serif" font-size="14.00" fill="#000000">AuthenticationModule</text>
</g>
<!-- AppMaterialModule&#45;&gt;AuthenticationModule -->
<g id="edge7" class="edge">
<title>AppMaterialModule&#45;&gt;AuthenticationModule</title>
<path fill="none" stroke="#000000" d="M188.419,-122.2228C188.419,-122.2228 188.419,-143.7269 188.419,-143.7269"/>
<polygon fill="#000000" stroke="#000000" points="184.9191,-143.7269 188.419,-153.7269 191.9191,-143.727 184.9191,-143.7269"/>
</g>
<!-- CloudModule -->
<g id="node6" class="node">
<title>CloudModule</title>
<polygon fill="#8dd3c7" stroke="#000000" points="309.7773,-190 306.7773,-194 285.7773,-194 282.7773,-190 216.2227,-190 216.2227,-154 309.7773,-154 309.7773,-190"/>
<text text-anchor="middle" x="263" y="-167.8" font-family="Times,serif" font-size="14.00" fill="#000000">CloudModule</text>
</g>
<!-- AppMaterialModule&#45;&gt;CloudModule -->
<g id="edge10" class="edge">
<title>AppMaterialModule&#45;&gt;CloudModule</title>
<path fill="none" stroke="#000000" d="M239.4683,-122.2228C239.4683,-122.2228 239.4683,-143.7269 239.4683,-143.7269"/>
<polygon fill="#000000" stroke="#000000" points="235.9684,-143.7269 239.4683,-153.7269 242.9684,-143.727 235.9684,-143.7269"/>
</g>
<!-- AppRoutingModule -->
<g id="node4" class="node">
<title>AppRoutingModule</title>
<polygon fill="#8dd3c7" stroke="#000000" points="160.2744,-122 157.2744,-126 136.2744,-126 133.2744,-122 31.7256,-122 31.7256,-86 160.2744,-86 160.2744,-122"/>
<text text-anchor="middle" x="96" y="-99.8" font-family="Times,serif" font-size="14.00" fill="#000000">AppRoutingModule</text>
</g>
<!-- AppRoutingModule&#45;&gt;AppModule -->
<g id="edge3" class="edge">
<title>AppRoutingModule&#45;&gt;AppModule</title>
<path fill="none" stroke="#000000" d="M43.6182,-122.2142C43.6182,-158.6396 43.6182,-237 43.6182,-237 43.6182,-237 75.3091,-237 75.3091,-237"/>
<polygon fill="#000000" stroke="#000000" points="75.3091,-240.5001 85.3091,-237 75.309,-233.5001 75.3091,-240.5001"/>
</g>
<!-- AuthenticationModule&#45;&gt;AppModule -->
<g id="edge4" class="edge">
<title>AuthenticationModule&#45;&gt;AppModule</title>
<path fill="none" stroke="#000000" d="M127,-190.1061C127,-190.1061 127,-208.991 127,-208.991"/>
<polygon fill="#000000" stroke="#000000" points="123.5001,-208.9909 127,-218.991 130.5001,-208.991 123.5001,-208.9909"/>
</g>
<!-- CloudModule&#45;&gt;AppModule -->
<g id="edge5" class="edge">
<title>CloudModule&#45;&gt;AppModule</title>
<path fill="none" stroke="#000000" d="M263,-190.1061C263,-209.3391 263,-237 263,-237 263,-237 178.9142,-237 178.9142,-237"/>
<polygon fill="#000000" stroke="#000000" points="178.9142,-233.5001 168.9142,-237 178.9142,-240.5001 178.9142,-233.5001"/>
</g>
<!-- CloudAddDialogComponent -->
<g id="node8" class="node">
<title>CloudAddDialogComponent</title>
<polygon fill="#ffffb3" stroke="#000000" points="1073.7688,-122 896.2312,-122 896.2312,-86 1073.7688,-86 1073.7688,-122"/>
<text text-anchor="middle" x="985" y="-99.8" font-family="Times,serif" font-size="14.00" fill="#000000">CloudAddDialogComponent</text>
</g>
<!-- CloudAddDialogComponent&#45;&gt;CloudModule -->
<g id="edge8" class="edge">
<title>CloudAddDialogComponent&#45;&gt;CloudModule</title>
<path fill="none" stroke="#000000" d="M985,-122.1274C985,-132.7109 985,-144 985,-144 985,-144 286.1818,-144 286.1818,-144 286.1818,-144 286.1818,-144.9793 286.1818,-144.9793"/>
<polygon fill="#000000" stroke="#000000" points="282.6819,-143.793 286.1818,-153.793 289.6819,-143.7931 282.6819,-143.793"/>
</g>
<!-- CloudLandingComponent -->
<g id="node9" class="node">
<title>CloudLandingComponent</title>
<polygon fill="#ffffb3" stroke="#000000" points="878.2175,-122 715.7825,-122 715.7825,-86 878.2175,-86 878.2175,-122"/>
<text text-anchor="middle" x="797" y="-99.8" font-family="Times,serif" font-size="14.00" fill="#000000">CloudLandingComponent</text>
</g>
<!-- CloudLandingComponent&#45;&gt;CloudModule -->
<g id="edge9" class="edge">
<title>CloudLandingComponent&#45;&gt;CloudModule</title>
<path fill="none" stroke="#000000" d="M797,-122.2015C797,-128.028 797,-133 797,-133 797,-133 262.825,-133 262.825,-133 262.825,-133 262.825,-143.8701 262.825,-143.8701"/>
<polygon fill="#000000" stroke="#000000" points="259.3251,-143.8701 262.825,-153.8701 266.3251,-143.8701 259.3251,-143.8701"/>
</g>
<!-- CloudOperationsService -->
<g id="node10" class="node">
<title>CloudOperationsService</title>
<ellipse fill="#fdb462" stroke="#000000" cx="586" cy="-104" rx="105.9382" ry="18"/>
<text text-anchor="middle" x="586" y="-99.8" font-family="Times,serif" font-size="14.00" fill="#000000">CloudOperationsService</text>
</g>
<!-- CloudOperationsService&#45;&gt;CloudModule -->
<g id="edge11" class="edge">
<title>CloudOperationsService&#45;&gt;CloudModule</title>
<path fill="none" stroke="#000000" d="M479.7963,-104C406.4611,-104 322.0845,-104 322.0845,-104 322.0845,-104 322.0845,-172 322.0845,-172 322.0845,-172 319.8422,-172 319.8422,-172"/>
<polygon fill="#000000" stroke="#000000" points="319.8422,-168.5001 309.8422,-172 319.8421,-175.5001 319.8422,-168.5001"/>
</g>
</g>
</svg>
